# xmcd
#
# Track frame offsets: 
#        150
#        12834
#        24637
#        36790
#        49653
#        60976
#        73060
#        86695
#        101521
#        116382
#        130189
#        143337
#        155892
#        169924
#        183005
#        196453
#
# Disc length: 2794 seconds
#
# Revision: 2
# Processed by: cddbd v1.5.2PL0 Copyright (c) Steve Scherf et al.
# Submitted via: ExactAudioCopy v0.95b4
#
DISCID=cf0ae810
DTITLE=Bill Monroe - The Legend Lives On vol1
DYEAR=1900
DGENRE=Bluegrass
TTITLE0=Kentucky Waltz
TTITLE1=Rocky Road Blues
TTITLE2=Goodbye Old Pal
TTITLE3=True Life Blues
TTITLE4=Blue Grass Special
TTITLE5=Footprints In The Snow
TTITLE6=Come Back To Me In My Dreams
TTITLE7=Mansions For Me
TTITLE8=Mother's Only Sleeping
TTITLE9=Blue Moon Of Kentucky
TTITLE10=Heavy Traffic Ahead
TTITLE11=Toy Heart
TTITLE12=Blue Yodel No. 4
TTITLE13=Will You Be Loving Another Man
TTITLE14=How Will I Explain About You
TTITLE15=Wicked Path Of Sin
EXTD=
EXTT0=
EXTT1=
EXTT2=
EXTT3=
EXTT4=
EXTT5=
EXTT6=
EXTT7=
EXTT8=
EXTT9=
EXTT10=
EXTT11=
EXTT12=
EXTT13=
EXTT14=
EXTT15=
PLAYORDER=
